<svg width="97" height="96" viewBox="0 0 97 96" fill="none" xmlns="http://www.w3.org/2000/svg">
<g clip-path="url(#clip0_0_2392)">
<path d="M48.5 96C75.0097 96 96.5 74.5097 96.5 48C96.5 21.4903 75.0097 0 48.5 0C21.9903 0 0.5 21.4903 0.5 48C0.5 74.5097 21.9903 96 48.5 96Z" fill="url(#paint0_linear_0_2392)"/>
<path d="M65.6881 29.0513V29.0419H57.8131V26.4581C57.8131 25.9628 57.7155 25.4723 57.5259 25.0147C57.3363 24.5571 57.0584 24.1414 56.7081 23.7912C56.3577 23.4411 55.9418 23.1634 55.4841 22.974C55.0265 22.7846 54.5359 22.6873 54.0406 22.6875H42.9594C41.9593 22.6875 41.0003 23.0848 40.2931 23.7919C39.586 24.499 39.1887 25.4581 39.1887 26.4581V29.0419H31.3137V29.0513C30.033 29.1286 28.8301 29.6919 27.9506 30.6262C27.0711 31.5604 26.5813 32.795 26.5812 34.0781V34.2338C26.5813 35.5168 27.0711 36.7515 27.9506 37.6857C28.8301 38.6199 30.033 39.1832 31.3137 39.2606V65.985C31.3137 67.9281 32.0855 69.7915 33.4592 71.1657C34.833 72.5398 36.6963 73.312 38.6394 73.3125H58.3606C60.304 73.3125 62.1678 72.5405 63.5419 71.1663C64.9161 69.7922 65.6881 67.9284 65.6881 65.985V39.2606C66.9689 39.1832 68.1718 38.6199 69.0513 37.6857C69.9308 36.7515 70.4206 35.5168 70.4206 34.2338V34.0781C70.4206 32.795 69.9308 31.5604 69.0513 30.6262C68.1718 29.6919 66.9689 29.1286 65.6881 29.0513ZM44.4162 61.9556C44.4165 62.2463 44.3594 62.5342 44.2484 62.8029C44.1373 63.0715 43.9743 63.3157 43.7689 63.5213C43.5634 63.727 43.3194 63.8901 43.0509 64.0014C42.7823 64.1127 42.4944 64.17 42.2037 64.17C41.6164 64.17 41.0532 63.9367 40.6379 63.5214C40.2227 63.1062 39.9894 62.5429 39.9894 61.9556V45.0806C39.9894 44.4933 40.2227 43.9301 40.6379 43.5148C41.0532 43.0996 41.6164 42.8662 42.2037 42.8662C42.4944 42.8662 42.7823 42.9235 43.0509 43.0348C43.3194 43.1462 43.5634 43.3093 43.7689 43.5149C43.9743 43.7206 44.1373 43.9647 44.2484 44.2334C44.3594 44.502 44.4165 44.7899 44.4162 45.0806V61.9556ZM57.0106 61.9556C57.0106 62.5429 56.7773 63.1062 56.362 63.5214C55.9468 63.9367 55.3835 64.17 54.7962 64.17C54.5055 64.17 54.2177 64.1127 53.9491 64.0014C53.6806 63.8901 53.4366 63.727 53.2311 63.5213C53.0256 63.3157 52.8627 63.0715 52.7516 62.8029C52.6405 62.5342 52.5835 62.2463 52.5837 61.9556V45.0806C52.5835 44.7899 52.6405 44.502 52.7516 44.2334C52.8627 43.9647 53.0256 43.7206 53.2311 43.5149C53.4366 43.3093 53.6806 43.1462 53.9491 43.0348C54.2177 42.9235 54.5055 42.8662 54.7962 42.8662C55.3835 42.8662 55.9468 43.0996 56.362 43.5148C56.7773 43.9301 57.0106 44.4933 57.0106 45.0806V61.9556Z" fill="white"/>
</g>
<defs>
<linearGradient id="paint0_linear_0_2392" x1="14.5587" y1="14.0587" x2="82.4412" y2="81.9412" gradientUnits="userSpaceOnUse">
<stop stop-color="#FF6432"/>
<stop offset="1" stop-color="#F44336"/>
</linearGradient>
<clipPath id="clip0_0_2392">
<rect width="96" height="96" fill="white" transform="translate(0.5)"/>
</clipPath>
</defs>
</svg>
