<svg width="14" height="14" viewBox="0 0 14 14" fill="none" xmlns="http://www.w3.org/2000/svg">
<path fill-rule="evenodd" clip-rule="evenodd" d="M6.99967 0.333313C7.37731 0.333313 7.68343 0.639443 7.68343 1.01707V6.31622H12.9826C13.3602 6.31622 13.6663 6.62235 13.6663 6.99998C13.6663 7.37761 13.3602 7.68374 12.9826 7.68374H7.68343V12.9829C7.68343 13.3605 7.37731 13.6666 6.99967 13.6666C6.62204 13.6666 6.31591 13.3605 6.31591 12.9829V7.68374H1.01677C0.639138 7.68374 0.333008 7.37761 0.333008 6.99998C0.333008 6.62235 0.639138 6.31622 1.01677 6.31622H6.31591V1.01707C6.31591 0.639443 6.62204 0.333313 6.99967 0.333313Z" fill="#50945D"/>
</svg>
