<svg width="24" height="25" viewBox="0 0 24 25" fill="none" xmlns="http://www.w3.org/2000/svg">
<path d="M20 22.3335H4C3.73478 22.3335 3.48043 22.2281 3.29289 22.0406C3.10536 21.8531 3 21.5987 3 21.3335V3.3335C3 3.06828 3.10536 2.81393 3.29289 2.62639C3.48043 2.43885 3.73478 2.3335 4 2.3335H20C20.2652 2.3335 20.5196 2.43885 20.7071 2.62639C20.8946 2.81393 21 3.06828 21 3.3335V21.3335C21 21.5987 20.8946 21.8531 20.7071 22.0406C20.5196 22.2281 20.2652 22.3335 20 22.3335ZM7 4.3335H5V20.3335H19V4.3335H14V13.3335L10.5 11.3335L7 13.3335V4.3335Z" fill="#0052CC"/>
</svg>
