<svg width="18" height="20" viewBox="0 0 18 20" fill="none" xmlns="http://www.w3.org/2000/svg">
<path d="M5.66667 13.3332L11.7194 13.3332C15.459 13.3332 16.0277 10.9839 16.7175 7.5574C16.9165 6.5691 17.016 6.07495 16.7767 5.74573C16.5375 5.4165 16.0789 5.4165 15.1617 5.4165L4 5.4165" stroke="#475467" stroke-width="1.5" stroke-linecap="round"/>
<path d="M5.66634 13.3332L3.48195 2.92894C3.29646 2.187 2.62983 1.6665 1.86505 1.6665L1.08301 1.6665" stroke="#475467" stroke-width="1.5" stroke-linecap="round"/>
<path d="M6.4 13.333H6.05714C4.92101 13.333 4 14.2924 4 15.4759C4 15.6731 4.1535 15.833 4.34286 15.833L13.5833 15.833" stroke="#475467" stroke-width="1.5" stroke-linecap="round" stroke-linejoin="round"/>
<ellipse cx="7.75" cy="17.083" rx="1.25" ry="1.25" stroke="#475467" stroke-width="1.5"/>
<ellipse cx="13.583" cy="17.083" rx="1.25" ry="1.25" stroke="#475467" stroke-width="1.5"/>
</svg>
