<svg width="24" height="25" viewBox="0 0 24 25" fill="none" xmlns="http://www.w3.org/2000/svg">
<path d="M3 3.3335H21C21.2652 3.3335 21.5196 3.43885 21.7071 3.62639C21.8946 3.81393 22 4.06828 22 4.3335V20.3335C22 20.5987 21.8946 20.8531 21.7071 21.0406C21.5196 21.2281 21.2652 21.3335 21 21.3335H3C2.73478 21.3335 2.48043 21.2281 2.29289 21.0406C2.10536 20.8531 2 20.5987 2 20.3335V4.3335C2 4.06828 2.10536 3.81393 2.29289 3.62639C2.48043 3.43885 2.73478 3.3335 3 3.3335ZM4 5.3335V19.3335H20V5.3335H4ZM7 13.3335H9V17.3335H7V13.3335ZM11 7.3335H13V17.3335H11V7.3335ZM15 10.3335H17V17.3335H15V10.3335Z" fill="#0052CC"/>
</svg>
