<svg width="10" height="10" viewBox="0 0 10 10" fill="none" xmlns="http://www.w3.org/2000/svg">
<path fill-rule="evenodd" clip-rule="evenodd" d="M4.99994 1.99512C5.21409 1.99512 5.38769 2.16872 5.38769 2.38287V4.76057L6.91824 5.52585C7.10979 5.62162 7.18743 5.85453 7.09165 6.04608C6.99588 6.23762 6.76297 6.31526 6.57143 6.21949L4.82653 5.34704C4.69516 5.28135 4.61218 5.14709 4.61218 5.00022V2.38287C4.61218 2.16872 4.78579 1.99512 4.99994 1.99512Z" fill="#F79009"/>
<path fill-rule="evenodd" clip-rule="evenodd" d="M1.02551 5C1.02551 2.80495 2.80495 1.02551 5 1.02551C7.19505 1.02551 8.97449 2.80495 8.97449 5C8.97449 5.34395 8.93079 5.67771 8.84866 5.996C8.8014 6.17916 8.87276 6.37635 9.03658 6.47093C9.24633 6.59203 9.51584 6.49701 9.58011 6.2635C9.69085 5.86119 9.75 5.4375 9.75 5C9.75 2.37665 7.62335 0.25 5 0.25C2.37665 0.25 0.25 2.37665 0.25 5C0.25 7.62335 2.37665 9.75 5 9.75C6.53084 9.75 7.89254 9.02582 8.76122 7.90136C8.89727 7.72524 8.83565 7.47428 8.64291 7.363C8.46411 7.25977 8.23734 7.31539 8.10858 7.47678C7.38035 8.38958 6.25848 8.97449 5 8.97449C2.80495 8.97449 1.02551 7.19505 1.02551 5Z" fill="#F79009"/>
</svg>
