<svg width="40" height="41" viewBox="0 0 40 41" fill="none" xmlns="http://www.w3.org/2000/svg">
<rect y="0.5" width="40" height="40" rx="12" fill="#13161A" fill-opacity="0.3"/>
<path d="M20 10.9C25.302 10.9 29.6 15.1981 29.6 20.5C29.6 25.802 25.302 30.1 20 30.1C14.6981 30.1 10.4 25.802 10.4 20.5C10.4 15.1981 14.6981 10.9 20 10.9ZM17.3713 17.0365C17.1375 16.8745 16.8142 16.8976 16.6059 17.1059L16.5365 17.189C16.3745 17.4229 16.3976 17.7462 16.6059 17.9544L19.1515 20.5L16.6059 23.0456L16.5365 23.1287C16.3745 23.3625 16.3976 23.6859 16.6059 23.8941L16.689 23.9636C16.9229 24.1256 17.2462 24.1024 17.4544 23.8941L20 21.3486L22.5456 23.8941L22.6287 23.9636C22.8625 24.1256 23.1859 24.1024 23.3941 23.8941L23.4636 23.811C23.6256 23.5772 23.6024 23.2539 23.3941 23.0456L20.8486 20.5L23.3941 17.9544L23.4636 17.8713C23.6256 17.6375 23.6024 17.3142 23.3941 17.1059L23.311 17.0365C23.0772 16.8745 22.7539 16.8976 22.5456 17.1059L20 19.6515L17.4544 17.1059L17.3713 17.0365Z" fill="#FCFCFD"/>
</svg>
