<svg width="16" height="20" viewBox="0 0 16 20" fill="none" xmlns="http://www.w3.org/2000/svg">
<path d="M1.33301 15.538V6.71172C1.33301 4.33338 1.33301 3.14421 2.06524 2.40536C2.79747 1.6665 3.97599 1.6665 6.33301 1.6665H9.66634C12.0234 1.6665 13.2019 1.6665 13.9341 2.40536C14.6663 3.14421 14.6663 4.33338 14.6663 6.71172V15.538C14.6663 16.7977 14.6663 17.4276 14.2814 17.6755C13.6523 18.0807 12.6797 17.231 12.1906 16.9226C11.7865 16.6677 11.5844 16.5403 11.3601 16.5329C11.1178 16.5249 10.9121 16.6472 10.4754 16.9226L8.88301 17.9268C8.45346 18.1977 8.23867 18.3332 7.99967 18.3332C7.76068 18.3332 7.54589 18.1977 7.11634 17.9268L5.52395 16.9226C5.1198 16.6677 4.91772 16.5403 4.69345 16.5329C4.45111 16.5249 4.24545 16.6472 3.80874 16.9226C3.31963 17.231 2.34707 18.0807 1.71797 17.6755C1.33301 17.4276 1.33301 16.7977 1.33301 15.538Z" stroke="#475467" stroke-width="1.5" stroke-linecap="round" stroke-linejoin="round"/>
<path d="M7.16602 9.1665H4.66602" stroke="#475467" stroke-width="1.5" stroke-linecap="round" stroke-linejoin="round"/>
<path d="M9.66602 5.83301L4.66602 5.83301" stroke="#475467" stroke-width="1.5" stroke-linecap="round" stroke-linejoin="round"/>
</svg>
