<svg width="20" height="20" viewBox="0 0 20 20" fill="none" xmlns="http://www.w3.org/2000/svg">
<path d="M9.2 3H7.6C3.6 3 2 4.5 2 8.25V12.75C2 16.5 3.6 18 7.6 18H12.4C16.4 18 18 16.5 18 12.75V11.25" stroke="#475467" stroke-width="1.5" stroke-linecap="round" stroke-linejoin="round"/>
<path d="M13.0971 3.00359L6.87701 9.2246C6.64021 9.46144 6.4034 9.92723 6.35604 10.2667L6.01662 12.643C5.89032 13.5035 6.49812 14.1035 7.35852 13.9851L9.73448 13.6456C10.066 13.5983 10.5317 13.3614 10.7764 13.1246L16.9965 6.90357C18.0701 5.82989 18.5753 4.58253 16.9965 3.00359C15.4178 1.42466 14.1707 1.92992 13.0971 3.00359Z" stroke="#475467" stroke-width="1.5" stroke-miterlimit="10" stroke-linecap="round" stroke-linejoin="round"/>
<path d="M12 4C12.5425 5.93522 14.0567 7.44939 16 8" stroke="#475467" stroke-width="1.5" stroke-miterlimit="10" stroke-linecap="round" stroke-linejoin="round"/>
</svg>
