<svg width="120" height="124" viewBox="0 0 120 124" fill="none" xmlns="http://www.w3.org/2000/svg">
<path d="M104.86 46.104C106.972 46.104 108.684 44.3902 108.684 42.276C108.684 40.1619 106.972 38.448 104.86 38.448C102.747 38.448 101.035 40.1619 101.035 42.276C101.035 44.3902 102.747 46.104 104.86 46.104Z" fill="#EAEEF9"/>
<path d="M3.26618 66.8052C4.65582 66.8052 5.78235 65.6776 5.78235 64.2867C5.78235 62.8958 4.65582 61.7683 3.26618 61.7683C1.87653 61.7683 0.75 62.8958 0.75 64.2867C0.75 65.6776 1.87653 66.8052 3.26618 66.8052Z" fill="#EAEEF9"/>
<path d="M14.8325 112.082C16.2222 112.082 17.3487 110.954 17.3487 109.563C17.3487 108.172 16.2222 107.045 14.8325 107.045C13.4429 107.045 12.3163 108.172 12.3163 109.563C12.3163 110.954 13.4429 112.082 14.8325 112.082Z" fill="#EAEEF9"/>
<path d="M28.2825 112.082L63.5915 101.018V55.6562L28.2825 66.635V112.082Z" fill="#B7BFCD"/>
<path opacity="0.4" d="M98.9004 112.082L63.5914 101.018V55.6562L98.9004 66.635V112.082Z" fill="#6D7C9A"/>
<g opacity="0.13">
<path d="M28.2825 112.082L63.5915 101.018V55.6562L28.2825 66.635V112.082Z" fill="url(#paint0_linear_4175_29671)"/>
<path d="M98.9004 112.082L63.5915 101.018V55.6562L98.9004 66.635V112.082Z" fill="url(#paint1_linear_4175_29671)"/>
</g>
<path d="M63.5915 123.231L28.2825 112.167V66.8052L63.5915 77.869V123.231Z" fill="#EDF1F9"/>
<path d="M63.5914 123.231L98.9004 112.167V66.8052L63.5914 77.869V123.231Z" fill="#DAE1ED"/>
<path opacity="0.09" d="M55.5915 115.231L28.2825 112.167V66.8052L63.5915 77.869L55.5915 115.231Z" fill="url(#paint2_linear_4175_29671)"/>
<path opacity="0.2" d="M71.5914 107.231L98.9004 112.167V66.8052L63.5914 77.869L71.5914 107.231Z" fill="url(#paint3_linear_4175_29671)"/>
<path d="M63.5914 55.6562L46.9903 43.2307L11.0914 55.3158L28.2824 66.635L63.5914 55.6562Z" fill="#DAE1ED"/>
<path d="M63.5914 55.6562L80.1926 43.2307L116.091 55.3158L98.9004 66.635L63.5914 55.6562Z" fill="#DAE1ED"/>
<path d="M28.2824 66.8052L63.5914 77.869L45.9791 89.1031L11.0914 77.5286L28.2824 66.8052Z" fill="#EFF4FD"/>
<path d="M98.9004 66.8052L63.5914 77.869L81.2038 89.1031L116.091 77.5286L98.9004 66.8052Z" fill="#EDF1F9"/>
<path d="M73.4429 12.1075C78.3895 25.532 79.8639 28.5148 80.3478 41.7427C80.1617 44.7622 80.0463 48.0455 78.6228 50.6894C76.7217 54.7339 72.0716 57.5348 67.6783 57.5802C63.1524 57.6611 58.7153 54.8899 56.7181 50.6168C55.313 48.0235 55.3577 44.4763 57.2851 42.1217C59.3804 39.8636 63.0666 39.3005 65.7183 40.7115C68.6352 42.0514 70.3762 44.8376 71.0211 47.7759C71.666 50.7143 71.3826 53.9012 70.5955 56.7989C68.9492 63.8464 67.5857 64.1873 63.5484 76.119" stroke="#ABB5CC" stroke-width="2" stroke-miterlimit="10" stroke-dasharray="4 4"/>
<path d="M79.4632 5.00192C79.4517 6.9759 77.6147 8.18459 75.2852 7.5543C72.8324 7.13619 71.0965 6.70527 70.9847 4.94347C71.041 3.13667 73.0123 2.42952 75.3196 1.63238C78.0862 0.533056 79.3066 3.07295 79.4632 5.00192Z" fill="#DAE2EB"/>
<path d="M63.6141 11.0383C64.8571 12.3179 67.4779 12.691 68.755 10.7364C70.1553 8.56967 71.354 6.99443 70.0662 5.54761C68.8231 4.26798 67.6134 5.1295 64.8468 6.22882C62.629 7.36033 62.1583 9.63647 63.6141 11.0383Z" fill="#DAE2EB"/>
<path d="M69.3498 2.87296C70.4811 2.3908 71.8362 2.74453 72.4409 3.65762C72.6985 3.94698 73.0008 4.40353 73.0903 4.73789C74.0532 6.98842 73.7505 9.21957 72.4512 9.74673C71.0287 10.4861 69.0689 9.21924 68.3188 7.0909C68.1397 6.42218 68.0501 6.08782 67.9158 5.58628C67.7704 4.37102 68.2185 3.35513 69.3498 2.87296C69.5178 2.82796 69.3498 2.87296 69.3498 2.87296Z" fill="#989FB0"/>
<path d="M17.3487 39.1009H15.1587V36.9109H13.2815V39.1009H11.0914V41.0407H13.2815V43.2307H15.1587V41.0407H17.3487V39.1009Z" fill="url(#paint4_linear_4175_29671)"/>
<path d="M22.1594 94.0481H19.9693V91.858H18.0921V94.0481H15.9021V95.9878H18.0921V98.1779H19.9693V95.9878H22.1594V94.0481Z" fill="url(#paint5_linear_4175_29671)"/>
<path d="M117.897 94.1721L115.218 92.8192L116.57 90.1397L114.274 88.9801L112.921 91.6596L110.241 90.3067L109.043 92.6801L111.723 94.0329L110.37 96.7125L112.666 97.8721L114.019 95.1925L116.699 96.5454L117.897 94.1721Z" fill="url(#paint6_linear_4175_29671)"/>
<defs>
<linearGradient id="paint0_linear_4175_29671" x1="52.4452" y1="58.9416" x2="47.6292" y2="78.9914" gradientUnits="userSpaceOnUse">
<stop offset="0.00289017" stop-color="#606673" stop-opacity="0"/>
<stop offset="1" stop-color="#373C47"/>
</linearGradient>
<linearGradient id="paint1_linear_4175_29671" x1="52.4452" y1="58.9416" x2="47.6292" y2="78.9914" gradientUnits="userSpaceOnUse">
<stop offset="0.00289017" stop-color="#606673" stop-opacity="0"/>
<stop offset="1" stop-color="#373C47"/>
</linearGradient>
<linearGradient id="paint2_linear_4175_29671" x1="36.1985" y1="97.8505" x2="44.6811" y2="73.8923" gradientUnits="userSpaceOnUse">
<stop offset="0.00289017" stop-color="#6C80AA" stop-opacity="0"/>
<stop offset="1" stop-color="#5D6A86"/>
</linearGradient>
<linearGradient id="paint3_linear_4175_29671" x1="82.6472" y1="104.395" x2="83.3143" y2="73.9923" gradientUnits="userSpaceOnUse">
<stop offset="0.00289017" stop-color="#314F91" stop-opacity="0"/>
<stop offset="1" stop-color="#324264"/>
</linearGradient>
<linearGradient id="paint4_linear_4175_29671" x1="14.2206" y1="37.1304" x2="14.2206" y2="40.6777" gradientUnits="userSpaceOnUse">
<stop stop-color="#B0BACC"/>
<stop offset="1" stop-color="#969EAE"/>
</linearGradient>
<linearGradient id="paint5_linear_4175_29671" x1="19.0312" y1="92.0776" x2="19.0312" y2="95.6248" gradientUnits="userSpaceOnUse">
<stop stop-color="#B0BACC"/>
<stop offset="1" stop-color="#969EAE"/>
</linearGradient>
<linearGradient id="paint6_linear_4175_29671" x1="115.287" y1="89.8288" x2="113.096" y2="94.1689" gradientUnits="userSpaceOnUse">
<stop stop-color="#B0BACC"/>
<stop offset="1" stop-color="#969EAE"/>
</linearGradient>
</defs>
</svg>
