<svg width="10" height="12" viewBox="0 0 10 12" fill="none" xmlns="http://www.w3.org/2000/svg">
<path d="M0.75 4.68421C0.75 2.94746 0.75 2.07908 1.26256 1.53954C1.77513 1 2.60008 1 4.25 1L5.75 1C7.39992 1 8.22487 1 8.73744 1.53954C9.25 2.07908 9.25 2.94746 9.25 4.68421V7.31579C9.25 9.05254 9.25 9.92092 8.73744 10.4605C8.22487 11 7.39992 11 5.75 11L4.25 11C2.60008 11 1.77513 11 1.26256 10.4605C0.75 9.92092 0.75 9.05254 0.75 7.31579L0.75 4.68421Z" stroke="#F79009" stroke-linecap="round" stroke-linejoin="round"/>
<path d="M3 1L3.0411 1.2466C3.14087 1.84522 3.19075 2.14453 3.40056 2.32227C3.61037 2.5 3.91381 2.5 4.52069 2.5L5.47931 2.5C6.08619 2.5 6.38963 2.5 6.59944 2.32227C6.80925 2.14453 6.85913 1.84522 6.9589 1.2466L7 1" stroke="#F79009" stroke-linecap="round" stroke-linejoin="round"/>
<path d="M3 8H5M3 5.5L7 5.5" stroke="#F79009" stroke-linecap="round"/>
</svg>
