<svg width="16" height="20" viewBox="0 0 16 20" fill="none" xmlns="http://www.w3.org/2000/svg">
<path d="M0.916992 7.80686C0.916992 4.91227 0.916992 3.46497 1.77126 2.56574C2.62554 1.6665 4.00047 1.6665 6.75033 1.6665L9.25033 1.6665C12.0002 1.6665 13.3751 1.6665 14.2294 2.56574C15.0837 3.46497 15.0837 4.91227 15.0837 7.80686V12.1928C15.0837 15.0874 15.0837 16.5347 14.2294 17.4339C13.3751 18.3332 12.0002 18.3332 9.25033 18.3332L6.75033 18.3332C4.00047 18.3332 2.62554 18.3332 1.77126 17.4339C0.916992 16.5347 0.916992 15.0874 0.916992 12.1928L0.916992 7.80686Z" stroke="#475467" stroke-width="1.5" stroke-linecap="round" stroke-linejoin="round"/>
<path d="M4.66699 1.6665L4.73549 2.0775C4.90178 3.0752 4.98492 3.57405 5.3346 3.87028C5.68428 4.1665 6.19001 4.1665 7.20148 4.1665L8.79917 4.1665C9.81064 4.1665 10.3164 4.1665 10.6661 3.87028C11.0157 3.57405 11.0989 3.0752 11.2652 2.0775L11.3337 1.6665" stroke="#475467" stroke-width="1.5" stroke-linecap="round" stroke-linejoin="round"/>
<path d="M4.66699 13.3332H8.00033M4.66699 9.1665L11.3337 9.1665" stroke="#475467" stroke-width="1.5" stroke-linecap="round"/>
</svg>
