<svg width="20" height="20" viewBox="0 0 20 20" fill="none" xmlns="http://www.w3.org/2000/svg">
<path d="M1.66699 9.1665C3.61008 7.13136 6.36969 7.03553 8.33366 9.1665M7.07957 3.74984C7.07957 4.90043 6.1455 5.83317 4.99327 5.83317C3.84104 5.83317 2.90697 4.90043 2.90697 3.74984C2.90697 2.59924 3.84104 1.6665 4.99327 1.6665C6.1455 1.6665 7.07957 2.59924 7.07957 3.74984Z" stroke="#475467" stroke-width="1.5" stroke-linecap="round" stroke-linejoin="round"/>
<path d="M11.667 18.333C13.6101 16.2979 16.3697 16.202 18.3337 18.333M17.0796 12.9163C17.0796 14.0669 16.1455 14.9997 14.9933 14.9997C13.841 14.9997 12.907 14.0669 12.907 12.9163C12.907 11.7657 13.841 10.833 14.9933 10.833C16.1455 10.833 17.0796 11.7657 17.0796 12.9163Z" stroke="#475467" stroke-width="1.5" stroke-linecap="round" stroke-linejoin="round"/>
<path d="M2.5 11.6667C2.5 14.8917 5.10833 17.5 8.33333 17.5V15.4167" stroke="#475467" stroke-width="1.5" stroke-linecap="round" stroke-linejoin="round"/>
<path d="M12.5 2.5H17.5M12.5 5H17.5M12.5 7.5H15.4167" stroke="#475467" stroke-width="1.5" stroke-linecap="round" stroke-linejoin="round"/>
</svg>
