<svg width="24" height="25" viewBox="0 0 24 25" fill="none" xmlns="http://www.w3.org/2000/svg">
<path d="M2 22.3335C2 20.2118 2.84285 18.1769 4.34315 16.6766C5.84344 15.1764 7.87827 14.3335 10 14.3335C12.1217 14.3335 14.1566 15.1764 15.6569 16.6766C17.1571 18.1769 18 20.2118 18 22.3335H16C16 20.7422 15.3679 19.2161 14.2426 18.0909C13.1174 16.9656 11.5913 16.3335 10 16.3335C8.4087 16.3335 6.88258 16.9656 5.75736 18.0909C4.63214 19.2161 4 20.7422 4 22.3335H2ZM10 13.3335C6.685 13.3335 4 10.6485 4 7.3335C4 4.0185 6.685 1.3335 10 1.3335C13.315 1.3335 16 4.0185 16 7.3335C16 10.6485 13.315 13.3335 10 13.3335ZM10 11.3335C12.21 11.3335 14 9.5435 14 7.3335C14 5.1235 12.21 3.3335 10 3.3335C7.79 3.3335 6 5.1235 6 7.3335C6 9.5435 7.79 11.3335 10 11.3335ZM18.284 15.0365C19.6893 15.6694 20.882 16.6947 21.7186 17.9892C22.5552 19.2837 23.0002 20.7922 23 22.3335H21C21.0002 21.1775 20.6666 20.046 20.0391 19.0751C19.4116 18.1042 18.5171 17.3352 17.463 16.8605L18.283 15.0365H18.284ZM17.596 3.7465C18.6035 4.16179 19.465 4.86703 20.071 5.77273C20.6771 6.67842 21.0004 7.74374 21 8.8335C21.0004 10.2058 20.4877 11.5287 19.5625 12.5423C18.6374 13.5559 17.3667 14.187 16 14.3115V12.2985C16.7409 12.1924 17.4283 11.8515 17.9613 11.326C18.4943 10.8004 18.8447 10.1178 18.9612 9.37843C19.0776 8.63904 18.954 7.88179 18.6084 7.21785C18.2628 6.55391 17.7134 6.01824 17.041 5.6895L17.596 3.7465Z" fill="#0052CC"/>
</svg>
