<svg width="10" height="10" viewBox="0 0 10 10" fill="none" xmlns="http://www.w3.org/2000/svg">
<path d="M1.27773 4.8499C0.86296 4.12667 0.662688 3.53611 0.54193 2.93747C0.363331 2.05211 0.772049 1.18725 1.44913 0.635399C1.73529 0.402165 2.06333 0.481851 2.23255 0.785432L2.61458 1.4708C2.91738 2.01404 3.06878 2.28566 3.03875 2.57363C3.00872 2.8616 2.80454 3.09614 2.39617 3.56521L1.27773 4.8499ZM1.27773 4.8499C2.11727 6.31378 3.43476 7.632 4.90034 8.47251M4.90034 8.47251C5.62357 8.88728 6.21414 9.08756 6.81277 9.20831C7.69813 9.38691 8.563 8.97819 9.11485 8.30111C9.34808 8.01495 9.26839 7.68691 8.96481 7.51769L8.27945 7.13567C7.73621 6.83286 7.46458 6.68146 7.17661 6.71149C6.88865 6.74152 6.65411 6.94571 6.18503 7.35408L4.90034 8.47251Z" stroke="#F79009" stroke-linejoin="round"/>
<path d="M5.75012 2.61399C6.37281 2.87842 6.87181 3.37742 7.13624 4.0001M6.03627 0.5C7.58383 0.946595 8.80357 2.16627 9.25022 3.7138" stroke="#F79009" stroke-linecap="round"/>
</svg>
