<svg width="32" height="32" viewBox="0 0 32 32" fill="none" xmlns="http://www.w3.org/2000/svg">
<rect width="32" height="32" rx="16" fill="#98A2B3"/>
<path fill-rule="evenodd" clip-rule="evenodd" d="M15.9739 7.04167H16.0263H16.0263C16.5297 7.04166 16.9464 7.04165 17.2905 7.07096C17.6511 7.10167 17.977 7.16724 18.2913 7.32285C18.8512 7.60007 19.2052 8.04064 19.4537 8.4825C19.6463 8.82503 19.7959 9.20985 19.9227 9.53598C19.9526 9.61294 19.9812 9.68663 20.0089 9.75574L20.1308 10.0607C20.1917 10.2128 20.2221 10.2888 20.2855 10.3318C20.3488 10.3748 20.4309 10.3749 20.5952 10.3752C21.3323 10.3763 21.8865 10.3848 22.3269 10.4454C22.8962 10.5239 23.3079 10.6924 23.7358 11.0208C23.9525 11.187 24.1464 11.381 24.3126 11.5976C24.6684 12.0612 24.819 12.6016 24.8899 13.2302C24.9584 13.8381 24.9584 14.6003 24.9584 15.5457V19.3791V19.3791C24.9584 20.5187 24.9584 21.4373 24.8613 22.1598C24.7605 22.9099 24.5447 23.5414 24.0431 24.043C23.5415 24.5446 22.91 24.7604 22.1599 24.8612C21.4374 24.9584 20.5188 24.9584 19.3791 24.9583H12.621C11.4814 24.9584 10.5628 24.9584 9.84029 24.8612C9.0902 24.7604 8.45864 24.5446 7.95704 24.043C7.45544 23.5414 7.2397 22.9099 7.13885 22.1598C7.04172 21.4373 7.04173 20.5187 7.04175 19.3791V19.3791V15.5456V15.5456C7.04174 14.6003 7.04173 13.8381 7.11026 13.2302C7.18112 12.6016 7.33181 12.0612 7.68752 11.5976C7.85377 11.381 8.04771 11.187 8.26437 11.0208C8.69227 10.6924 9.10397 10.5239 9.6733 10.4454C10.1136 10.3848 10.6679 10.3763 11.405 10.3752C11.5692 10.3749 11.6513 10.3748 11.7147 10.3318C11.7781 10.2888 11.8085 10.2128 11.8693 10.0607L11.9913 9.75574C12.019 9.68664 12.0476 9.61295 12.0775 9.536C12.2043 9.20987 12.3538 8.82503 12.5465 8.4825C12.795 8.04064 13.149 7.60007 13.7089 7.32285C14.0232 7.16724 14.3491 7.10167 14.7097 7.07096C15.0538 7.04165 15.4705 7.04166 15.9739 7.04167H15.9739ZM12.6667 17.6667C12.6667 15.8257 14.1591 14.3333 16.0001 14.3333C17.841 14.3333 19.3334 15.8257 19.3334 17.6667C19.3334 19.5076 17.841 21 16.0001 21C14.1591 21 12.6667 19.5076 12.6667 17.6667ZM15.9964 10.1667C15.5382 10.1667 15.1667 10.5398 15.1667 11C15.1667 11.4585 15.5473 11.8333 16.0038 11.8333C16.462 11.8333 16.8334 11.4602 16.8334 11C16.8334 10.5415 16.4529 10.1667 15.9964 10.1667Z" fill="white"/>
</svg>
