<svg width="20" height="20" viewBox="0 0 20 20" fill="none" xmlns="http://www.w3.org/2000/svg">
<path d="M7.55671 1.6665L12.4426 1.6665C13.2104 1.6665 13.5943 1.6665 13.8328 1.91058C14.2775 2.36573 14.2775 4.30061 13.8328 4.75576C13.5943 4.99984 13.2104 4.99984 12.4426 4.99984L7.55671 4.99984C6.78896 4.99984 6.40509 4.99984 6.16658 4.75576C5.72182 4.30061 5.72182 2.36573 6.16658 1.91058C6.40509 1.6665 6.78896 1.6665 7.55671 1.6665Z" stroke="#475467" stroke-width="1.5"/>
<path d="M6.66667 5C6.80411 5.27488 6.87284 5.41235 6.92172 5.54642C7.17676 6.24596 7.10671 7.02277 6.73065 7.6654C6.65857 7.78857 6.56637 7.91151 6.38197 8.15738L6.04577 8.60564C5.67072 9.10571 5.48319 9.35575 5.34728 9.62969C5.21 9.90641 5.11184 10.2009 5.05564 10.5046C5 10.8053 5 11.1179 5 11.743L5 13.3333C5 15.6904 5 16.8689 5.73223 17.6011C6.46447 18.3333 7.64298 18.3333 10 18.3333C12.357 18.3333 13.5355 18.3333 14.2678 17.6011C15 16.8689 15 15.6904 15 13.3333L15 11.743C15 11.1179 15 10.8053 14.9444 10.5046C14.8882 10.2009 14.79 9.90641 14.6527 9.62969C14.5168 9.35575 14.3293 9.10571 13.9542 8.60564L13.618 8.15738C13.4336 7.91151 13.3414 7.78857 13.2693 7.6654C12.8933 7.02277 12.8232 6.24596 13.0783 5.54642C13.1272 5.41234 13.1959 5.2749 13.3333 5" stroke="#475467" stroke-width="1.5"/>
<path d="M9.99967 10.833V14.9997M7.91634 12.9163L12.083 12.9163" stroke="#475467" stroke-width="1.5" stroke-linecap="round"/>
</svg>
