<svg width="16" height="20" viewBox="0 0 16 20" fill="none" xmlns="http://www.w3.org/2000/svg">
<path d="M10.5 2.08301V3.33301C10.5 4.51152 10.5 5.10077 10.8661 5.46689C11.2322 5.83301 11.8215 5.83301 13 5.83301L14.25 5.83301" stroke="#475467" stroke-width="1.5" stroke-linecap="round" stroke-linejoin="round"/>
<path d="M1.33301 13.3332L1.33301 6.6665C1.33301 4.30948 1.33301 3.13097 2.06524 2.39874C2.79747 1.6665 3.97599 1.6665 6.33301 1.6665L9.80932 1.6665C10.1499 1.6665 10.3203 1.6665 10.4734 1.72994C10.6265 1.79337 10.747 1.9138 10.9878 2.15466L14.1782 5.34502C14.419 5.58587 14.5395 5.7063 14.6029 5.85945C14.6663 6.01259 14.6663 6.1829 14.6663 6.52353L14.6663 13.3332C14.6663 15.6902 14.6663 16.8687 13.9341 17.6009C13.2019 18.3332 12.0234 18.3332 9.66634 18.3332L6.33301 18.3332C3.97599 18.3332 2.79747 18.3332 2.06524 17.6009C1.33301 16.8687 1.33301 15.6902 1.33301 13.3332Z" stroke="#475467" stroke-width="1.5" stroke-linecap="round" stroke-linejoin="round"/>
<path d="M4.66602 9.1665L11.3327 9.1665M4.66602 11.6665L11.3327 11.6665M4.66602 14.1665H8.14171" stroke="#475467" stroke-width="1.5" stroke-linecap="round" stroke-linejoin="round"/>
</svg>
