<svg width="18" height="20" viewBox="0 0 18 20" fill="none" xmlns="http://www.w3.org/2000/svg">
<path d="M14 1.6665V3.33317M4 1.6665V3.33317" stroke="#475467" stroke-width="1.5" stroke-linecap="round" stroke-linejoin="round"/>
<path d="M8.99561 10.833H9.00309M8.99561 14.1663H9.00309M12.3252 10.833H12.3327M5.66602 10.833H5.67349M5.66602 14.1663H5.67349" stroke="#475467" stroke-width="2" stroke-linecap="round" stroke-linejoin="round"/>
<path d="M1.91602 6.6665H16.0827" stroke="#475467" stroke-width="1.5" stroke-linecap="round" stroke-linejoin="round"/>
<path d="M1.08301 10.2027C1.08301 6.57161 1.08301 4.75607 2.12644 3.62803C3.16987 2.5 4.84925 2.5 8.20801 2.5H9.79134C13.1501 2.5 14.8295 2.5 15.8729 3.62803C16.9163 4.75607 16.9163 6.57161 16.9163 10.2027V10.6306C16.9163 14.2617 16.9163 16.0773 15.8729 17.2053C14.8295 18.3333 13.1501 18.3333 9.79134 18.3333H8.20801C4.84925 18.3333 3.16987 18.3333 2.12644 17.2053C1.08301 16.0773 1.08301 14.2617 1.08301 10.6306V10.2027Z" stroke="#475467" stroke-width="1.5" stroke-linecap="round" stroke-linejoin="round"/>
<path d="M1.5 6.6665H16.5" stroke="#475467" stroke-width="1.5" stroke-linecap="round" stroke-linejoin="round"/>
</svg>
