<svg width="20" height="20" viewBox="0 0 20 20" fill="none" xmlns="http://www.w3.org/2000/svg">
<path d="M2.91699 7.80686C2.91699 4.91227 2.91699 3.46497 3.77126 2.56574C4.62554 1.6665 6.00047 1.6665 8.75033 1.6665L11.2503 1.6665C14.0002 1.6665 15.3751 1.6665 16.2294 2.56574C17.0837 3.46497 17.0837 4.91227 17.0837 7.80686V12.1928C17.0837 15.0874 17.0837 16.5347 16.2294 17.4339C15.3751 18.3332 14.0002 18.3332 11.2503 18.3332L8.75033 18.3332C6.00047 18.3332 4.62554 18.3332 3.77126 17.4339C2.91699 16.5347 2.91699 15.0874 2.91699 12.1928L2.91699 7.80686Z" stroke="#475467" stroke-width="1.5" stroke-linecap="round" stroke-linejoin="round"/>
<path d="M6.66699 1.6665L6.73549 2.0775C6.90178 3.0752 6.98492 3.57405 7.3346 3.87028C7.68428 4.1665 8.19001 4.1665 9.20148 4.1665L10.7992 4.1665C11.8106 4.1665 12.3164 4.1665 12.6661 3.87028C13.0157 3.57405 13.0989 3.0752 13.2652 2.0775L13.3337 1.6665" stroke="#475467" stroke-width="1.5" stroke-linecap="round" stroke-linejoin="round"/>
<path d="M6.66699 13.3332H10.0003M6.66699 9.1665L13.3337 9.1665" stroke="#475467" stroke-width="1.5" stroke-linecap="round"/>
</svg>
