<svg width="20" height="20" viewBox="0 0 20 20" fill="none" xmlns="http://www.w3.org/2000/svg">
<path d="M17.7642 5.95132L17.3529 5.23749C17.0418 4.69763 16.8863 4.4277 16.6217 4.32006C16.357 4.21243 16.0577 4.29736 15.4591 4.46723L14.4422 4.75365C14.0601 4.84178 13.6591 4.79178 13.3101 4.61249L13.0294 4.45051C12.7302 4.25886 12.5 3.97627 12.3726 3.64412L12.0943 2.81296C11.9113 2.26294 11.8198 1.98794 11.602 1.83064C11.3842 1.67334 11.0949 1.67334 10.5163 1.67334L9.58729 1.67334C9.00866 1.67334 8.71934 1.67334 8.50153 1.83064C8.28372 1.98794 8.19223 2.26294 8.00925 2.81296L7.73095 3.64412C7.60355 3.97627 7.37338 4.25886 7.07415 4.45051L6.79341 4.61249C6.44446 4.79178 6.0435 4.84178 5.66133 4.75365L4.64446 4.46723C4.04585 4.29736 3.74655 4.21243 3.4819 4.32006C3.21725 4.4277 3.06171 4.69763 2.75064 5.23749L2.33931 5.95132C2.04772 6.45737 1.90193 6.71039 1.93022 6.97974C1.95852 7.24909 2.1537 7.46614 2.54406 7.90026L3.40326 8.86085C3.61326 9.1267 3.76235 9.59001 3.76235 10.0065C3.76235 10.4233 3.61331 10.8865 3.40328 11.1524L2.54406 12.113C2.1537 12.5471 1.95852 12.7642 1.93022 13.0335C1.90193 13.3029 2.04773 13.5559 2.33931 14.062L2.75062 14.7758C3.0617 15.3156 3.21725 15.5856 3.4819 15.6932C3.74655 15.8008 4.04586 15.7159 4.64448 15.546L5.66129 15.2596C6.04353 15.1714 6.44456 15.2215 6.79356 15.4008L7.07426 15.5628C7.37343 15.7545 7.60354 16.037 7.73092 16.3691L8.00925 17.2004C8.19223 17.7504 8.28372 18.0254 8.50153 18.1827C8.71934 18.34 9.00866 18.34 9.58729 18.34H10.5163C11.0949 18.34 11.3842 18.34 11.602 18.1827C11.8198 18.0254 11.9113 17.7504 12.0943 17.2004L12.3726 16.3691C12.5 16.037 12.7301 15.7545 13.0293 15.5628L13.31 15.4008C13.659 15.2215 14.06 15.1714 14.4423 15.2596L15.4591 15.546C16.0577 15.7159 16.357 15.8008 16.6217 15.6932C16.8863 15.5856 17.0419 15.3156 17.3529 14.7758L17.3529 14.7758L17.7642 14.062C18.0558 13.5559 18.2016 13.3029 18.1733 13.0335C18.145 12.7642 17.9499 12.5471 17.5595 12.113L16.7003 11.1524C16.4903 10.8865 16.3412 10.4233 16.3412 10.0065C16.3412 9.59001 16.4903 9.1267 16.7003 8.86085L17.5595 7.90026C17.9499 7.46614 18.145 7.24909 18.1733 6.97974C18.2016 6.71039 18.0558 6.45737 17.7642 5.95132Z" stroke="#475467" stroke-width="1.5" stroke-linecap="round"/>
<path d="M12.9329 10.0002C12.9329 11.611 11.6271 12.9168 10.0163 12.9168C8.40545 12.9168 7.09961 11.611 7.09961 10.0002C7.09961 8.38933 8.40545 7.0835 10.0163 7.0835C11.6271 7.0835 12.9329 8.38933 12.9329 10.0002Z" stroke="#344054" stroke-width="1.5"/>
</svg>
