<svg width="140" height="156" viewBox="0 0 140 156" fill="none" xmlns="http://www.w3.org/2000/svg">
<g filter="url(#filter0_d_3622_176798)">
<rect x="24.25" y="16.2524" width="91" height="91" rx="20" fill="#50945D" shape-rendering="crispEdges"/>
<g filter="url(#filter1_d_3622_176798)">
<path d="M78.6538 40.5024H60.8462C53.1112 40.5024 48.5 45.1137 48.5 52.8487V70.6349C48.5 78.3912 53.1112 83.0024 60.8462 83.0024H78.6325C86.3675 83.0024 90.9787 78.3912 90.9787 70.6562V52.8487C91 45.1137 86.3888 40.5024 78.6538 40.5024ZM79.9075 56.8649L67.8587 68.9137C67.5612 69.2112 67.1575 69.3812 66.7325 69.3812C66.3075 69.3812 65.9037 69.2112 65.6063 68.9137L59.5925 62.8999C58.9762 62.2837 58.9762 61.2637 59.5925 60.6474C60.2087 60.0312 61.2287 60.0312 61.845 60.6474L66.7325 65.5349L77.655 54.6124C78.2712 53.9962 79.2913 53.9962 79.9075 54.6124C80.5238 55.2287 80.5238 56.2274 79.9075 56.8649Z" fill="white"/>
</g>
</g>
<defs>
<filter id="filter0_d_3622_176798" x="0.25" y="16.2524" width="139" height="139" filterUnits="userSpaceOnUse" color-interpolation-filters="sRGB">
<feFlood flood-opacity="0" result="BackgroundImageFix"/>
<feColorMatrix in="SourceAlpha" type="matrix" values="0 0 0 0 0 0 0 0 0 0 0 0 0 0 0 0 0 0 127 0" result="hardAlpha"/>
<feMorphology radius="10" operator="erode" in="SourceAlpha" result="effect1_dropShadow_3622_176798"/>
<feOffset dy="24"/>
<feGaussianBlur stdDeviation="17"/>
<feComposite in2="hardAlpha" operator="out"/>
<feColorMatrix type="matrix" values="0 0 0 0 0.180469 0 0 0 0 0.461198 0 0 0 0 0.342428 0 0 0 0.3 0"/>
<feBlend mode="normal" in2="BackgroundImageFix" result="effect1_dropShadow_3622_176798"/>
<feBlend mode="normal" in="SourceGraphic" in2="effect1_dropShadow_3622_176798" result="shape"/>
</filter>
<filter id="filter1_d_3622_176798" x="20.25" y="30.2524" width="99" height="99" filterUnits="userSpaceOnUse" color-interpolation-filters="sRGB">
<feFlood flood-opacity="0" result="BackgroundImageFix"/>
<feColorMatrix in="SourceAlpha" type="matrix" values="0 0 0 0 0 0 0 0 0 0 0 0 0 0 0 0 0 0 127 0" result="hardAlpha"/>
<feOffset dy="18"/>
<feGaussianBlur stdDeviation="12"/>
<feComposite in2="hardAlpha" operator="out"/>
<feColorMatrix type="matrix" values="0 0 0 0 0 0 0 0 0 0 0 0 0 0 0 0 0 0 0.24 0"/>
<feBlend mode="normal" in2="BackgroundImageFix" result="effect1_dropShadow_3622_176798"/>
<feBlend mode="normal" in="SourceGraphic" in2="effect1_dropShadow_3622_176798" result="shape"/>
</filter>
</defs>
</svg>
