<svg width="20" height="20" viewBox="0 0 20 20" fill="none" xmlns="http://www.w3.org/2000/svg">
<g clip-path="url(#clip0_1627_25824)">
<path d="M10.7833 12.884C10.4904 13.1769 10.4904 13.6518 10.7833 13.9447C11.0761 14.2376 11.551 14.2376 11.8439 13.9447L10.7833 12.884ZM12.6319 13.1567C12.9248 12.8638 12.9248 12.389 12.6319 12.0961C12.339 11.8032 11.8641 11.8032 11.5712 12.0961L12.6319 13.1567ZM13.1471 10.5202C12.8542 10.8131 12.8542 11.2879 13.1471 11.5808C13.44 11.8737 13.9149 11.8737 14.2078 11.5808L13.1471 10.5202ZM16.0463 9.74228C16.3392 9.44939 16.3392 8.97452 16.0463 8.68162C15.7534 8.38873 15.2785 8.38873 14.9856 8.68162L16.0463 9.74228ZM2.37846 12.884C2.08556 13.1769 2.08556 13.6518 2.37846 13.9447C2.67135 14.2376 3.14622 14.2376 3.43912 13.9447L2.37846 12.884ZM9.25387 18.3102L9.16637 17.5653L9.25387 18.3102ZM8.67292 18.3278L8.71586 17.579L8.67292 18.3278ZM18.3283 8.67244L17.5795 8.71537L18.3283 8.67244ZM18.3106 9.25339L17.5658 9.16588L18.3106 9.25339ZM6.4931 4.8739L5.96277 4.34357L6.4931 4.8739ZM10.7468 1.68952L10.8343 2.4344L10.7468 1.68952ZM11.3277 1.67191L11.2848 2.42068L11.3277 1.67191ZM4.87439 6.49262L5.40472 7.02295L4.87439 6.49262ZM1.69001 10.7463L2.43488 10.8338L1.69001 10.7463ZM1.6724 11.3272L2.42117 11.2843L1.6724 11.3272ZM11.8439 13.9447L12.6319 13.1567L11.5712 12.0961L10.7833 12.884L11.8439 13.9447ZM14.2078 11.5808L16.0463 9.74228L14.9856 8.68162L13.1471 10.5202L14.2078 11.5808ZM3.43912 13.9447L13.9451 3.43869L12.8844 2.37803L2.37846 12.884L3.43912 13.9447ZM5.40472 7.02295L7.02344 5.40423L5.96277 4.34357L4.34406 5.96229L5.40472 7.02295ZM14.5959 12.9767L12.9772 14.5954L14.0379 15.6561L15.6566 14.0374L14.5959 12.9767ZM12.9772 14.5954C11.9508 15.6219 11.2247 16.3463 10.6071 16.8386C10.0003 17.3222 9.57471 17.5173 9.16637 17.5653L9.34138 19.055C10.1447 18.9607 10.8319 18.5776 11.542 18.0116C12.2413 17.4543 13.0363 16.6577 14.0379 15.6561L12.9772 14.5954ZM4.07427 15.9259C5.01462 16.8662 5.76917 17.6228 6.44359 18.1447C7.13455 18.6793 7.81768 19.03 8.62999 19.0765L8.71586 17.579C8.32294 17.5565 7.92627 17.3953 7.36156 16.9584C6.78031 16.5086 6.10331 15.8336 5.13493 14.8652L4.07427 15.9259ZM9.16637 17.5653C9.0154 17.583 8.86465 17.5875 8.71586 17.579L8.62999 19.0765C8.86673 19.0901 9.10476 19.0828 9.34138 19.055L9.16637 17.5653ZM14.8657 5.13444C15.8341 6.10282 16.5091 6.77982 16.9589 7.36107C17.3958 7.92578 17.557 8.32245 17.5795 8.71537L19.077 8.6295C19.0304 7.81719 18.6798 7.13406 18.1452 6.4431C17.6233 5.76868 16.8667 5.01413 15.9264 4.07378L14.8657 5.13444ZM15.6566 14.0374C16.6582 13.0358 17.4547 12.2408 18.0121 11.5415C18.5781 10.8314 18.9612 10.1442 19.0555 9.3409L17.5658 9.16588C17.5178 9.57422 17.3227 9.99986 16.8391 10.6066C16.3468 11.2242 15.6224 11.9503 14.5959 12.9767L15.6566 14.0374ZM17.5795 8.71537C17.588 8.86417 17.5835 9.01491 17.5658 9.16588L19.0555 9.3409C19.0833 9.10428 19.0906 8.86624 19.077 8.6295L17.5795 8.71537ZM7.02344 5.40423C8.0499 4.37777 8.77592 3.65333 9.39354 3.16109C10.0003 2.67749 10.4259 2.48237 10.8343 2.4344L10.6593 0.944642C9.85598 1.03901 9.16879 1.42207 8.45864 1.98807C7.75933 2.54543 6.96434 3.34201 5.96277 4.34357L7.02344 5.40423ZM15.9264 4.07378C14.986 3.13344 14.2315 2.37687 13.5571 1.855C12.8661 1.32033 12.183 0.96972 11.3707 0.923144L11.2848 2.42068C11.6777 2.44321 12.0744 2.60433 12.6391 3.04131C13.2203 3.49108 13.8973 4.16606 14.8657 5.13444L15.9264 4.07378ZM10.8343 2.4344C10.9853 2.41666 11.136 2.41215 11.2848 2.42068L11.3707 0.923144C11.1339 0.90957 10.8959 0.916844 10.6593 0.944642L10.8343 2.4344ZM4.34406 5.96229C3.34249 6.96385 2.54591 7.75884 1.98856 8.45815C1.42256 9.1683 1.0395 9.85549 0.945129 10.6588L2.43488 10.8338C2.48286 10.4255 2.67797 9.99982 3.16157 9.39305C3.65382 8.77544 4.37826 8.04941 5.40472 7.02295L4.34406 5.96229ZM5.13493 14.8652C4.16655 13.8969 3.49157 13.2199 3.0418 12.6386C2.60482 12.0739 2.4437 11.6772 2.42117 11.2843L0.923632 11.3702C0.970208 12.1825 1.32082 12.8656 1.85549 13.5566C2.37736 14.231 3.13392 14.9855 4.07427 15.9259L5.13493 14.8652ZM0.945129 10.6588C0.917331 10.8954 0.910058 11.1334 0.923632 11.3702L2.42117 11.2843C2.41264 11.1355 2.41715 10.9848 2.43488 10.8338L0.945129 10.6588Z" fill="#475467"/>
<path d="M3.33398 18.3335H16.6673" stroke="#344054" stroke-width="1.5" stroke-linecap="round"/>
</g>
<defs>
<clipPath id="clip0_1627_25824">
<rect width="20" height="20" fill="white"/>
</clipPath>
</defs>
</svg>
