<svg width="20" height="20" viewBox="0 0 20 20" fill="none" xmlns="http://www.w3.org/2000/svg">
<path d="M16.25 4.58301L15.7336 12.9373C15.6016 15.0717 15.5356 16.1389 15.0006 16.9062C14.7361 17.2856 14.3955 17.6057 14.0006 17.8464C13.2018 18.333 12.1325 18.333 9.99395 18.333C7.8526 18.333 6.78192 18.333 5.98254 17.8455C5.58733 17.6044 5.24666 17.2837 4.98224 16.9037C4.4474 16.1352 4.38288 15.0664 4.25384 12.929L3.75 4.58301" stroke="#475467" stroke-width="1.5" stroke-linecap="round"/>
<path d="M2.5 4.58317H17.5M13.3798 4.58317L12.8109 3.40961C12.433 2.63005 12.244 2.24027 11.9181 1.99718C11.8458 1.94325 11.7692 1.89529 11.6892 1.85375C11.3283 1.6665 10.8951 1.6665 10.0288 1.6665C9.14069 1.6665 8.69665 1.6665 8.32974 1.8616C8.24842 1.90484 8.17082 1.95475 8.09774 2.01081C7.76803 2.26375 7.58386 2.6678 7.2155 3.47589L6.71077 4.58317" stroke="#475467" stroke-width="1.5" stroke-linecap="round"/>
<path d="M7.91675 13.75L7.91675 8.75" stroke="#475467" stroke-width="1.5" stroke-linecap="round"/>
<path d="M12.0833 13.75L12.0833 8.75" stroke="#475467" stroke-width="1.5" stroke-linecap="round"/>
</svg>
