<svg width="18" height="20" viewBox="0 0 18 20" fill="none" xmlns="http://www.w3.org/2000/svg">
<path d="M4.83317 1.66683C4.83317 1.20659 4.46007 0.833496 3.99984 0.833496C3.5396 0.833496 3.1665 1.20659 3.1665 1.66683V2.04087C3.48344 1.94034 3.82112 1.86856 4.17928 1.8165C4.3859 1.78647 4.60377 1.76246 4.83317 1.74327V1.66683Z" fill="#50945D"/>
<path d="M14.8332 2.04087C14.5162 1.94034 14.1786 1.86856 13.8204 1.8165C13.6138 1.78647 13.3959 1.76246 13.1665 1.74327V1.66683C13.1665 1.20659 13.5396 0.833496 13.9998 0.833496C14.4601 0.833496 14.8332 1.20659 14.8332 1.66683V2.04087Z" fill="#50945D"/>
<path opacity="0.4" fill-rule="evenodd" clip-rule="evenodd" d="M9.85732 1.66699H8.14269C6.51912 1.66697 5.20951 1.66695 4.17944 1.81666C3.10445 1.97291 2.214 2.30684 1.51502 3.06249C0.824577 3.80892 0.527324 4.74426 0.386801 5.87421C0.249972 6.97444 0.249985 8.37871 0.25 10.1452V10.6888C0.249985 12.4553 0.249972 13.8595 0.386801 14.9598C0.527324 16.0897 0.824577 17.0251 1.51502 17.7715C2.214 18.5272 3.10445 18.8611 4.17944 19.0173C5.20952 19.167 6.51911 19.167 8.14269 19.167H9.8573C11.4809 19.167 12.7905 19.167 13.8206 19.0173C14.8955 18.8611 15.786 18.5272 16.485 17.7715C17.1754 17.0251 17.4727 16.0897 17.6132 14.9598C17.75 13.8595 17.75 12.4553 17.75 10.6887V10.1452C17.75 8.37873 17.75 6.97445 17.6132 5.87421C17.4727 4.74426 17.1754 3.80892 16.485 3.06249C15.786 2.30684 14.8955 1.97291 13.8206 1.81666C12.7905 1.66695 11.4809 1.66697 9.85732 1.66699ZM2.74819 7.50033C2.366 7.50033 2.17491 7.50033 2.05321 7.62046C1.93151 7.7406 1.92906 7.92926 1.92417 8.30659C1.91689 8.86755 1.91667 9.49548 1.91667 10.203V10.631C1.91667 12.4683 1.91819 13.7688 2.04073 14.7541C2.16106 15.7217 2.38552 16.2581 2.73852 16.6398C3.08297 17.0121 3.55392 17.2422 4.41917 17.368C5.31548 17.4983 6.50354 17.5003 8.20833 17.5003H9.79167C11.4965 17.5003 12.6845 17.4983 13.5808 17.368C14.4461 17.2422 14.917 17.0121 15.2615 16.6398C15.6145 16.2581 15.8389 15.7217 15.9593 14.7541C16.0818 13.7688 16.0833 12.4683 16.0833 10.631V10.203C16.0833 9.49548 16.0831 8.86756 16.0758 8.30659C16.0709 7.92926 16.0685 7.7406 15.9468 7.62046C15.8251 7.50033 15.634 7.50033 15.2518 7.50033H2.74819Z" fill="#50945D"/>
<path fill-rule="evenodd" clip-rule="evenodd" d="M4.625 10.8337C4.625 10.2584 5.09137 9.79199 5.66667 9.79199H5.67414C6.24944 9.79199 6.71581 10.2584 6.71581 10.8337C6.71581 11.409 6.24944 11.8753 5.67414 11.8753H5.66667C5.09137 11.8753 4.625 11.409 4.625 10.8337ZM7.9546 10.8337C7.9546 10.2584 8.42096 9.79199 8.99626 9.79199H9.00374C9.57903 9.79199 10.0454 10.2584 10.0454 10.8337C10.0454 11.409 9.57903 11.8753 9.00374 11.8753H8.99626C8.42096 11.8753 7.9546 11.409 7.9546 10.8337ZM11.2842 10.8337C11.2842 10.2584 11.7506 9.79199 12.3259 9.79199H12.3333C12.9086 9.79199 13.375 10.2584 13.375 10.8337C13.375 11.409 12.9086 11.8753 12.3333 11.8753H12.3259C11.7506 11.8753 11.2842 11.409 11.2842 10.8337ZM4.625 14.167C4.625 13.5917 5.09137 13.1253 5.66667 13.1253H5.67414C6.24944 13.1253 6.71581 13.5917 6.71581 14.167C6.71581 14.7423 6.24944 15.2087 5.67414 15.2087H5.66667C5.09137 15.2087 4.625 14.7423 4.625 14.167ZM7.9546 14.167C7.9546 13.5917 8.42096 13.1253 8.99626 13.1253H9.00374C9.57903 13.1253 10.0454 13.5917 10.0454 14.167C10.0454 14.7423 9.57903 15.2087 9.00374 15.2087H8.99626C8.42096 15.2087 7.9546 14.7423 7.9546 14.167Z" fill="#50945D"/>
</svg>
