<svg width="20" height="20" viewBox="0 0 20 20" fill="none" xmlns="http://www.w3.org/2000/svg">
<path d="M1.6665 9.49967C1.6665 8.53445 1.86795 8.33301 2.83317 8.33301H17.1665C18.1317 8.33301 18.3332 8.53445 18.3332 9.49967V10.4997C18.3332 11.4649 18.1317 11.6663 17.1665 11.6663H2.83317C1.86795 11.6663 1.6665 11.4649 1.6665 10.4997V9.49967Z" stroke="#344054" stroke-width="1.5" stroke-linecap="round"/>
<path d="M1.6665 2.83317C1.6665 1.86795 1.86795 1.6665 2.83317 1.6665H17.1665C18.1317 1.6665 18.3332 1.86795 18.3332 2.83317V3.83317C18.3332 4.79839 18.1317 4.99984 17.1665 4.99984H2.83317C1.86795 4.99984 1.6665 4.79839 1.6665 3.83317V2.83317Z" stroke="#344054" stroke-width="1.5" stroke-linecap="round"/>
<path d="M1.6665 16.1667C1.6665 15.2014 1.86795 15 2.83317 15H17.1665C18.1317 15 18.3332 15.2014 18.3332 16.1667V17.1667C18.3332 18.1319 18.1317 18.3333 17.1665 18.3333H2.83317C1.86795 18.3333 1.6665 18.1319 1.6665 17.1667V16.1667Z" stroke="#344054" stroke-width="1.5" stroke-linecap="round"/>
</svg>
