<svg width="18" height="18" viewBox="0 0 18 18" fill="none" xmlns="http://www.w3.org/2000/svg">
<path d="M1.10957 6.7701C1.33099 6.72146 1.57834 6.70898 1.83317 6.70898H16.1665C16.4213 6.70898 16.6687 6.72146 16.8901 6.7701C17.1186 6.82029 17.3575 6.91714 17.5537 7.11342C17.75 7.3097 17.8469 7.54856 17.8971 7.77705C17.9457 7.99847 17.9582 8.24582 17.9582 8.50065V9.50065C17.9582 9.75548 17.9457 10.0028 17.8971 10.2242C17.8469 10.4527 17.75 10.6916 17.5537 10.8879C17.3575 11.0842 17.1186 11.181 16.8901 11.2312C16.6687 11.2798 16.4213 11.2923 16.1665 11.2923H1.83317C1.57834 11.2923 1.33099 11.2798 1.10957 11.2312C0.881077 11.181 0.642218 11.0842 0.445937 10.8879C0.249656 10.6916 0.152814 10.4527 0.102618 10.2242C0.0539762 10.0028 0.0415039 9.75548 0.0415039 9.50065V8.50065C0.0415039 8.24582 0.0539762 7.99847 0.102618 7.77705C0.152814 7.54856 0.249656 7.3097 0.445937 7.11342C0.642218 6.91714 0.881077 6.82029 1.10957 6.7701Z" fill="#50945D"/>
<path opacity="0.4" d="M1.10957 0.103106C1.33099 0.0544645 1.57834 0.0419922 1.83317 0.0419922H16.1665C16.4213 0.0419922 16.6687 0.0544645 16.8901 0.103106C17.1186 0.153302 17.3575 0.250145 17.5537 0.446426C17.75 0.642706 17.8469 0.881566 17.8971 1.11006C17.9457 1.33148 17.9582 1.57883 17.9582 1.83366V2.83366C17.9582 3.08849 17.9457 3.33584 17.8971 3.55726C17.8469 3.78575 17.75 4.02461 17.5537 4.22089C17.3575 4.41717 17.1186 4.51402 16.8901 4.56421C16.6687 4.61285 16.4213 4.62533 16.1665 4.62533H1.83317C1.57834 4.62533 1.33099 4.61285 1.10957 4.56421C0.881077 4.51402 0.642218 4.41717 0.445937 4.22089C0.249656 4.02461 0.152814 3.78575 0.102618 3.55726C0.0539762 3.33584 0.0415039 3.08849 0.0415039 2.83366V1.83366C0.0415039 1.57883 0.0539762 1.33148 0.102618 1.11006C0.152814 0.881566 0.249656 0.642706 0.445937 0.446425C0.642218 0.250145 0.881077 0.153302 1.10957 0.103106Z" fill="#50945D"/>
<path opacity="0.4" d="M1.10957 13.4361C1.33099 13.3875 1.57834 13.375 1.83317 13.375H16.1665C16.4213 13.375 16.6687 13.3875 16.8901 13.4361C17.1186 13.4863 17.3575 13.5832 17.5537 13.7794C17.75 13.9757 17.8469 14.2146 17.8971 14.4431C17.9457 14.6645 17.9582 14.9118 17.9582 15.1667V16.1667C17.9582 16.4215 17.9457 16.6688 17.8971 16.8903C17.8469 17.1188 17.75 17.3576 17.5537 17.5539C17.3575 17.7502 17.1186 17.847 16.8901 17.8972C16.6687 17.9459 16.4213 17.9583 16.1665 17.9583H1.83317C1.57834 17.9583 1.33099 17.9459 1.10957 17.8972C0.881077 17.847 0.642218 17.7502 0.445937 17.5539C0.249656 17.3576 0.152814 17.1188 0.102618 16.8903C0.0539762 16.6688 0.0415039 16.4215 0.0415039 16.1667V15.1667C0.0415039 14.9118 0.0539762 14.6645 0.102618 14.4431C0.152814 14.2146 0.249656 13.9757 0.445937 13.7794C0.642218 13.5832 0.881077 13.4863 1.10957 13.4361Z" fill="#50945D"/>
</svg>
