<svg width="14" height="14" viewBox="0 0 14 14" fill="none" xmlns="http://www.w3.org/2000/svg">
<path fill-rule="evenodd" clip-rule="evenodd" d="M7.00016 0.333496C7.37779 0.333496 7.68392 0.639626 7.68392 1.01726V6.3164H12.9831C13.3607 6.3164 13.6668 6.62253 13.6668 7.00016C13.6668 7.37779 13.3607 7.68392 12.9831 7.68392H7.68392V12.9831C7.68392 13.3607 7.37779 13.6668 7.00016 13.6668C6.62253 13.6668 6.3164 13.3607 6.3164 12.9831V7.68392H1.01726C0.639626 7.68392 0.333496 7.37779 0.333496 7.00016C0.333496 6.62253 0.639626 6.3164 1.01726 6.3164H6.3164V1.01726C6.3164 0.639626 6.62253 0.333496 7.00016 0.333496Z" fill="#344054"/>
</svg>
