<svg width="14" height="12" viewBox="0 0 14 12" fill="none" xmlns="http://www.w3.org/2000/svg">
<path d="M12.833 5.16657H2.94967L5.97467 1.53324C6.11612 1.36306 6.18417 1.14366 6.16386 0.923301C6.14354 0.702946 6.03652 0.499686 5.86634 0.358238C5.69616 0.216789 5.47676 0.148737 5.2564 0.169054C5.03605 0.18937 4.83279 0.29639 4.69134 0.466571L0.524674 5.46657C0.496642 5.50634 0.471574 5.54812 0.449674 5.59157C0.449674 5.63324 0.449675 5.65824 0.391341 5.6999C0.353569 5.79545 0.333792 5.89716 0.333008 5.9999C0.333792 6.10264 0.353569 6.20435 0.391341 6.2999C0.391341 6.34157 0.391341 6.36657 0.449674 6.40824C0.471574 6.45169 0.496642 6.49347 0.524674 6.53324L4.69134 11.5332C4.76969 11.6273 4.86781 11.703 4.97871 11.7548C5.08962 11.8067 5.21058 11.8334 5.33301 11.8332C5.52772 11.8336 5.71641 11.7658 5.86634 11.6416C5.95072 11.5716 6.02047 11.4857 6.0716 11.3887C6.12273 11.2918 6.15422 11.1857 6.16429 11.0765C6.17435 10.9674 6.16278 10.8573 6.13025 10.7527C6.09771 10.648 6.04484 10.5508 5.97467 10.4666L2.94967 6.83324H12.833C13.054 6.83324 13.266 6.74544 13.4223 6.58916C13.5785 6.43288 13.6663 6.22092 13.6663 5.9999C13.6663 5.77889 13.5785 5.56693 13.4223 5.41065C13.266 5.25437 13.054 5.16657 12.833 5.16657Z" fill="white"/>
</svg>
