<svg width="45" height="37" viewBox="0 0 45 37" fill="none" xmlns="http://www.w3.org/2000/svg">
<path d="M32.648 7.29482L34.9044 13.3272H9.50544L11.7618 7.29482C12.1508 6.25978 13.1968 5.56436 14.3726 5.56436H30.0373C31.213 5.56436 32.259 6.25978 32.648 7.29482ZM40.9126 13.7153L37.8696 5.58862C36.7025 2.47541 33.5644 0.38916 30.0373 0.38916H14.3726C10.8454 0.38916 7.70728 2.47541 6.54021 5.58862L3.49718 13.7153C1.49154 14.4916 0.0737648 16.3433 0.0737648 18.5024V30.1466V34.028C0.0737648 35.4592 1.31 36.6156 2.84016 36.6156H5.60655C7.13671 36.6156 8.37294 35.4592 8.37294 34.028V30.1466H36.0369V34.028C36.0369 35.4592 37.2731 36.6156 38.8033 36.6156H41.5697C43.0998 36.6156 44.3361 35.4592 44.3361 34.028V30.1466V18.5024C44.3361 16.3433 42.9183 14.4916 40.9126 13.7153ZM33.2705 21.09C33.2705 19.6587 34.5067 18.5024 36.0369 18.5024C37.567 18.5024 38.8033 19.6587 38.8033 21.09C38.8033 22.5212 37.567 23.6776 36.0369 23.6776C34.5067 23.6776 33.2705 22.5212 33.2705 21.09ZM8.37294 23.6776C6.84278 23.6776 5.60655 22.5212 5.60655 21.09C5.60655 19.6587 6.84278 18.5024 8.37294 18.5024C9.90311 18.5024 11.1393 19.6587 11.1393 21.09C11.1393 22.5212 9.90311 23.6776 8.37294 23.6776Z" fill="#745EFF"/>
</svg>
