<svg width="50" height="36" viewBox="0 0 50 36" fill="none" xmlns="http://www.w3.org/2000/svg">
<path d="M18.0556 18C21.1241 18 23.6111 15.7617 23.6111 13C23.6111 10.2383 21.1241 8 18.0556 8C14.987 8 12.5 10.2383 12.5 13C12.5 15.7578 14.9913 18 18.0556 18ZM40.2778 16.125H31.9444C30.7943 16.125 29.8611 16.9648 29.8611 18C29.8611 19.0352 30.7943 19.875 31.9444 19.875H40.2778C41.4279 19.875 42.3611 19.0352 42.3611 18C42.3611 16.9648 41.4323 16.125 40.2778 16.125ZM20.8333 20.5H15.2778C11.441 20.5 8.33333 23.2969 8.33333 26.75C8.33333 27.4375 8.95833 28 9.72222 28H26.3889C27.1559 28 27.7778 27.4403 27.7778 26.75C27.7778 23.2969 24.6701 20.5 20.8333 20.5ZM40.2778 9.875H31.9444C30.7943 9.875 29.8611 10.7148 29.8611 11.75C29.8611 12.7852 30.7943 13.625 31.9444 13.625H40.2778C41.4279 13.625 42.3611 12.7852 42.3611 11.75C42.3611 10.7148 41.4323 9.875 40.2778 9.875ZM44.4444 0.5H5.55556C2.48698 0.5 0 2.73828 0 5.5V30.5C0 33.2617 2.48698 35.5 5.55556 35.5H44.4444C47.513 35.5 50 33.2617 50 30.5V5.5C50 2.73828 47.5087 0.5 44.4444 0.5ZM45.8333 30.5C45.8333 31.1892 45.2102 31.75 44.4444 31.75H5.55556C4.78976 31.75 4.16667 31.1892 4.16667 30.5V5.5C4.16667 4.81078 4.78976 4.25 5.55556 4.25H44.4444C45.2102 4.25 45.8333 4.81078 45.8333 5.5V30.5Z" fill="#745EFF"/>
</svg>
