<svg width="46" height="31" viewBox="0 0 46 31" fill="none" xmlns="http://www.w3.org/2000/svg">
<path d="M22.9794 20.0379C22.588 20.039 22.1972 20.0055 21.8114 19.9377C21.2048 19.7631 20.6392 19.4629 20.1492 19.0553C20.0369 18.9629 19.9321 18.8627 19.8273 18.7586C19.409 18.3293 19.0777 17.8186 18.8528 17.2564C18.6278 16.6941 18.5137 16.0914 18.517 15.4834C18.519 14.2569 18.9896 13.0804 19.8273 12.2081C20.2444 11.7776 20.7406 11.4366 21.2868 11.2051C21.8331 10.9736 22.4186 10.8561 23.0094 10.8595C24.201 10.8615 25.344 11.3459 26.1915 12.2081C26.8443 12.8846 27.2789 13.7516 27.4363 14.6913C27.5937 15.6309 27.4663 16.5976 27.0712 17.4601C26.72 18.2634 26.1417 18.939 25.4118 19.3989C24.6819 19.8587 23.8342 20.0814 22.9794 20.0379ZM8.86214 27.9024C9.16689 28.2689 9.32245 28.7424 9.2964 29.2241C9.26753 29.7105 9.05851 30.167 8.7124 30.4995L8.65624 30.5496C8.29997 30.8656 7.83789 31.026 7.36843 30.9966C6.89864 30.9675 6.45768 30.7536 6.13677 30.3993L6.07687 30.3222C4.1766 28.1595 2.6303 25.6934 1.49839 23.0203C0.485366 20.6214 -0.0248837 18.0296 0.00093295 15.414C0.057134 12.7852 0.648915 10.1978 1.73798 7.81928C2.96183 5.16604 4.59809 2.73611 6.58226 0.625272L6.63093 0.57518C6.96285 0.245253 7.40147 0.053142 7.86259 0.0357254C8.10199 0.0272544 8.34062 0.068239 8.56437 0.156259C8.78813 0.24428 8.99249 0.377552 9.16538 0.548207L9.20656 0.594446C9.52974 0.93306 9.71805 1.38394 9.73441 1.85831C9.74235 2.10411 9.70238 2.34905 9.61687 2.57869C9.53135 2.80833 9.40202 3.01802 9.23651 3.19539L9.2103 3.22621C7.53671 5.01852 6.14709 7.07035 5.09229 9.30663C4.1903 11.2324 3.69887 13.3345 3.65099 15.4718C3.62952 17.6047 4.04406 19.7183 4.86767 21.6756C5.83109 23.8923 7.12586 25.9401 8.70491 27.7444C8.74443 27.7694 8.78088 27.7991 8.81348 27.833L8.86214 27.887V27.9024ZM15.698 22.2574C15.968 22.633 16.0922 23.0988 16.0462 23.5636C16.0232 23.8062 15.9534 24.0415 15.841 24.2559C15.7285 24.4703 15.5755 24.6594 15.3911 24.8121L15.3199 24.8699C14.9545 25.1468 14.5024 25.2745 14.0508 25.2282C13.8146 25.2051 13.5852 25.1335 13.3763 25.0177C13.1673 24.9019 12.983 24.7442 12.8341 24.5539L12.8005 24.5115C11.7489 23.1959 10.9015 21.7206 10.2885 20.1381C9.7182 18.6491 9.41995 17.0646 9.40871 15.4641C9.40416 13.882 9.68994 12.3132 10.251 10.8402C10.8631 9.25357 11.7146 7.77629 12.7743 6.46294C13.0761 6.07664 13.5146 5.82959 13.9935 5.77611C14.4723 5.72264 14.9521 5.86713 15.3274 6.1778C15.7027 6.48847 15.9428 6.93987 15.9947 7.4327C16.0467 7.92553 15.9063 8.41942 15.6044 8.80571V8.82498C14.8074 9.81004 14.1634 10.9162 13.6952 12.1041C12.8318 14.252 12.8318 16.6647 13.6952 18.8126C14.1762 20.027 14.8325 21.1597 15.6419 22.1726L15.7055 22.269L15.698 22.2574ZM39.8782 30.3877C39.5545 30.7392 39.1126 30.95 38.6428 30.9773C38.4046 30.9937 38.1657 30.9602 37.9405 30.8787C37.7152 30.7972 37.5084 30.6695 37.3326 30.5033C37.1539 30.3399 37.0083 30.1417 36.9043 29.9202C36.8002 29.6987 36.7396 29.4582 36.7261 29.2125C36.713 28.9693 36.7469 28.7259 36.826 28.4964C36.905 28.2669 37.0276 28.0558 37.1866 27.8754L37.209 27.8485C38.826 26.022 40.1481 23.9405 41.1249 21.6833C41.9674 19.7081 42.3923 17.5711 42.3715 15.414C42.3225 13.2764 41.8298 11.1743 40.9265 9.24884C39.8666 7.01123 38.4678 4.96138 36.7823 3.17612L36.7373 3.12603C36.4239 2.77055 36.2574 2.30338 36.2731 1.82363C36.2917 1.33348 36.4912 0.869065 36.8309 0.525088L36.8796 0.478849C37.225 0.156281 37.6788 -0.0151053 38.1449 0.0010462C38.6212 0.020139 39.0724 0.225473 39.4065 0.57518L39.4515 0.621419C41.421 2.72714 43.0479 5.14589 44.2695 7.7846C45.3537 10.1605 45.9428 12.7436 45.9991 15.3678C46.0244 17.992 45.5142 20.5925 44.5016 23.0011C43.3891 25.6329 41.8722 28.0633 40.0093 30.1989C39.9759 30.2655 39.933 30.3266 39.882 30.38L39.8782 30.3877ZM33.076 24.6811C32.8348 24.9335 32.5288 25.1101 32.1937 25.1905C31.8587 25.2708 31.5083 25.2515 31.1835 25.1348C30.8587 25.0181 30.5728 24.8088 30.3591 24.5314C30.1453 24.2539 30.0126 23.9196 29.9763 23.5675C29.9509 23.3235 29.9726 23.0767 30.04 22.8413C30.1075 22.6059 30.2194 22.3865 30.3694 22.1957V22.1765C31.1759 21.1764 31.8286 20.0549 32.3049 18.8511C33.1608 16.6924 33.1608 14.2744 32.3049 12.1157V12.0848C31.8361 10.9055 31.1919 9.80832 30.3956 8.83269L30.3394 8.76333C30.0723 8.38787 29.9496 7.92394 29.995 7.46093C30.0172 7.21821 30.0866 6.98257 30.1991 6.76807C30.3117 6.55358 30.4651 6.36462 30.6502 6.21248L30.6988 6.16624C31.0695 5.87166 31.5355 5.73384 32.0016 5.78092C32.2379 5.80559 32.4671 5.87823 32.6759 5.99464C32.8848 6.11104 33.0691 6.2689 33.2183 6.45909L33.2445 6.49377C34.2978 7.79967 35.1432 9.26933 35.749 10.8479C36.3126 12.3203 36.5997 13.8893 36.5951 15.4718C36.5837 17.0685 36.2855 18.6493 35.7153 20.1343C35.0959 21.7303 34.2411 23.2185 33.1809 24.5462C33.1488 24.585 33.1137 24.6211 33.076 24.6541V24.6811Z" fill="#745EFF"/>
</svg>
