<svg width="39" height="41" viewBox="0 0 39 41" fill="none" xmlns="http://www.w3.org/2000/svg">
<path d="M0.654663 5.125C0.654663 2.36719 3.09733 0.125 6.10173 0.125H33.3371C36.3415 0.125 38.7842 2.36719 38.7842 5.125V35.125C38.7842 37.8828 36.3415 40.125 33.3371 40.125H6.10173C3.09733 40.125 0.654663 37.8828 0.654663 35.125V5.125ZM16.2299 21.9062C13.8553 20.875 12.1105 18.8281 11.6594 16.375H14.9873C15.1234 18.75 15.6426 20.5781 16.2299 21.9062ZM19.7449 22.625H19.7194H19.6939C19.4896 22.3516 19.2087 21.9297 18.9194 21.3359C18.4087 20.2734 17.864 18.6562 17.7108 16.375H21.7195C21.5663 18.6562 21.0301 20.2734 20.5109 21.3359C20.2216 21.9297 19.9407 22.3516 19.7364 22.625H19.7449ZM23.2089 21.9062C23.7877 20.5703 24.3069 18.75 24.4516 16.375H27.7794C27.3283 18.8281 25.5835 20.875 23.2089 21.9062ZM24.4516 13.875C24.3154 11.5 23.7962 9.67187 23.2089 8.34375C25.5835 9.375 27.3283 11.4219 27.7794 13.875H24.4516ZM19.6939 7.625H19.7194H19.7449C19.9492 7.89844 20.2301 8.32031 20.5195 8.91406C21.0301 9.97656 21.5748 11.5937 21.728 13.875H17.7193C17.8725 11.5937 18.4087 9.97656 18.9279 8.91406C19.2173 8.32031 19.4981 7.89844 19.7024 7.625H19.6939ZM16.2299 8.34375C15.6511 9.67969 15.132 11.5 14.9873 13.875H11.6594C12.1105 11.4219 13.8553 9.375 16.2299 8.34375ZM30.6136 15.125C30.6136 9.60156 25.7367 5.125 19.7194 5.125C13.7021 5.125 8.82527 9.60156 8.82527 15.125C8.82527 20.6484 13.7021 25.125 19.7194 25.125C25.7367 25.125 30.6136 20.6484 30.6136 15.125ZM10.187 30.125C9.43807 30.125 8.82527 30.6875 8.82527 31.375C8.82527 32.0625 9.43807 32.625 10.187 32.625H29.2518C30.0008 32.625 30.6136 32.0625 30.6136 31.375C30.6136 30.6875 30.0008 30.125 29.2518 30.125H10.187Z" fill="#745EFF"/>
</svg>
