<svg width="24" height="25" viewBox="0 0 24 25" fill="none" xmlns="http://www.w3.org/2000/svg">
<path d="M7 5.3335V2.3335C7 2.06828 7.10536 1.81393 7.29289 1.62639C7.48043 1.43885 7.73478 1.3335 8 1.3335H16C16.2652 1.3335 16.5196 1.43885 16.7071 1.62639C16.8946 1.81393 17 2.06828 17 2.3335V5.3335H21C21.2652 5.3335 21.5196 5.43885 21.7071 5.62639C21.8946 5.81393 22 6.06828 22 6.3335V20.3335C22 20.5987 21.8946 20.8531 21.7071 21.0406C21.5196 21.2281 21.2652 21.3335 21 21.3335H3C2.73478 21.3335 2.48043 21.2281 2.29289 21.0406C2.10536 20.8531 2 20.5987 2 20.3335V6.3335C2 6.06828 2.10536 5.81393 2.29289 5.62639C2.48043 5.43885 2.73478 5.3335 3 5.3335H7ZM9 13.3335H4V19.3335H20V13.3335H15V16.3335H9V13.3335ZM20 7.3335H4V11.3335H9V9.3335H15V11.3335H20V7.3335ZM11 11.3335V14.3335H13V11.3335H11ZM9 3.3335V5.3335H15V3.3335H9Z" fill="white"/>
</svg>
