<svg width="44" height="44" viewBox="0 0 44 44" fill="none" xmlns="http://www.w3.org/2000/svg">
<path d="M25.4553 4.88836L28.9749 11.9858C29.4548 12.9737 30.7347 13.9214 31.8146 14.1029L38.1939 15.1715C42.2734 15.8571 43.2333 18.8412 40.2936 21.785L35.3342 26.7854C34.4943 27.6323 34.0343 29.2655 34.2943 30.4349L35.7141 36.625C36.834 41.5246 34.2543 43.4199 29.9548 40.8592L23.9754 37.2904C22.8956 36.6452 21.1158 36.6452 20.0159 37.2904L14.0365 40.8592C9.75701 43.4199 7.15729 41.5044 8.27717 36.625L9.69701 30.4349C9.95699 29.2655 9.49704 27.6323 8.65713 26.7854L3.69768 21.785C0.778 18.8412 1.7179 15.8571 5.79745 15.1715L12.1767 14.1029C13.2366 13.9214 14.5165 12.9737 14.9964 11.9858L18.516 4.88836C20.4358 1.03721 23.5555 1.03721 25.4553 4.88836Z" stroke="#F79009" stroke-width="3" stroke-linecap="round" stroke-linejoin="round"/>
</svg>
