<svg width="44" height="44" viewBox="0 0 44 44" fill="none" xmlns="http://www.w3.org/2000/svg">
<path d="M21.9922 0.5C24.0907 0.5 25.7438 2.08506 26.7991 4.22383L30.3231 11.3303C30.43 11.5503 30.6833 11.86 31.0641 12.1433C31.4445 12.4263 31.8171 12.5824 32.0622 12.6236L38.4415 13.6923C40.7458 14.0795 42.6771 15.209 43.3041 17.1758C43.9306 19.141 43.0127 21.1832 41.3557 22.8433L41.3541 22.8449L36.3982 27.8417C36.2018 28.0398 35.9818 28.4128 35.8438 28.8989C35.7067 29.3816 35.6946 29.8214 35.7567 30.1055L35.7576 30.1094L37.1755 36.2908C37.7635 38.8635 37.5686 41.4146 35.7542 42.7484C33.9334 44.0867 31.4454 43.4935 29.185 42.1473L23.2051 38.578C22.954 38.428 22.5227 38.3065 22.0022 38.3065C21.4855 38.3065 21.0451 38.4264 20.7777 38.582L20.7739 38.5842L14.8058 42.1464C12.5481 43.4973 10.0631 44.08 8.24222 42.7404C6.42898 41.4064 6.22428 38.8601 6.81422 36.2895L8.2318 30.1094L8.23267 30.1055C8.29482 29.8214 8.28266 29.3816 8.1456 28.8989C8.0076 28.4128 7.78757 28.0398 7.59115 27.8417L2.6317 22.8413C0.985293 21.1813 0.0704137 19.1408 0.691895 17.1785C1.31519 15.2105 3.24286 14.0796 5.54866 13.6921L11.9226 12.6244L11.9247 12.624C12.1583 12.5835 12.5254 12.4291 12.905 12.1454C13.2852 11.8611 13.5392 11.5507 13.6462 11.3303L13.6516 11.3193L17.1712 4.22195L17.1726 4.21915C18.2379 2.08215 19.8961 0.5 21.9922 0.5Z" fill="#F79009"/>
</svg>
